<?xml version="1.0" encoding="UTF-8"?><svg id="_5-day_and_night" xmlns="http://www.w3.org/2000/svg" viewBox="0 0 64 64"><g><polygon points="64 0 0 0 0 64 64 0" fill="#a8d7e4"/><polygon points="0 64 64 64 64 0 0 64" fill="#b295f0"/><g><g><circle cx="18" cy="18" r="8" fill="#e36861"/><g><polygon points="21 7 18 1 15 7 21 7" fill="#fcea81"/><polygon points="12.343 8.101 5.979 5.979 8.101 12.343 12.343 8.101" fill="#fcea81"/><polygon points="7 15 1 18 7 21 7 15" fill="#fcea81"/><polygon points="8.101 23.657 5.979 30.021 12.343 27.899 8.101 23.657" fill="#fcea81"/><polygon points="15 29 18 35 21 29 15 29" fill="#fcea81"/><polygon points="23.657 27.899 30.021 30.021 27.899 23.657 23.657 27.899" fill="#fcea81"/><polygon points="29 21 35 18 29 15 29 21" fill="#fcea81"/><polygon points="27.899 12.343 30.021 5.979 23.657 8.101 27.899 12.343" fill="#fcea81"/></g></g><g><path d="M52.221,34.779c.495,1.315,.779,2.734,.779,4.221,0,6.627-5.373,12-12,12-1.488,0-2.907-.284-4.221-.779,1.71,4.541,6.082,7.779,11.221,7.779,6.627,0,12-5.373,12-12,0-5.139-3.237-9.512-7.779-11.221Z" fill="#fcea81"/><path d="M46,39c-4,1-5,5-5,5,0,0-1-4-5-5,4-1,5-5,5-5,0,0,1,4,5,5Z" fill="#dbb55c"/></g><circle cx="49" cy="28" r="2" fill="#fcea81"/><circle cx="28" cy="54" r="2" fill="#fcea81"/></g></g><g><path d="M63.707,.293c-.391-.391-1.023-.391-1.414,0L.293,62.293c-.391,.391-.391,1.023,0,1.414,.195,.195,.451,.293,.707,.293s.512-.098,.707-.293L63.707,1.707c.391-.391,.391-1.023,0-1.414Z"/><path d="M27,18c0-4.963-4.038-9-9-9s-9,4.037-9,9,4.038,9,9,9,9-4.037,9-9Zm-9,7c-3.86,0-7-3.141-7-7s3.14-7,7-7,7,3.141,7,7-3.14,7-7,7Z"/><path d="M15,8h6c.347,0,.668-.18,.851-.475s.199-.663,.044-.973L18.895,.553c-.339-.678-1.45-.678-1.789,0l-3,6c-.155,.31-.138,.678,.044,.973s.504,.475,.851,.475Zm3-4.764l1.382,2.764h-2.764l1.382-2.764Z"/><path d="M7.152,12.659c.11,.329,.382,.577,.719,.657,.077,.018,.153,.026,.23,.026,.262,0,.518-.104,.707-.293l4.243-4.242c.245-.245,.346-.6,.266-.937-.08-.338-.328-.609-.657-.719l-6.364-2.121c-.36-.121-.756-.026-1.023,.241-.268,.268-.361,.664-.242,1.023l2.122,6.363Zm3.34-4.121l-1.954,1.954-.978-2.932,2.932,.978Z"/><path d="M.553,18.895l6,3c.141,.07,.294,.105,.447,.105,.183,0,.365-.05,.526-.149,.294-.183,.474-.504,.474-.851v-6c0-.347-.18-.668-.474-.851s-.664-.198-.973-.044L.553,17.105c-.339,.17-.553,.516-.553,.895s.214,.725,.553,.895Zm5.447-2.276v2.764l-2.764-1.382,2.764-1.382Z"/><path d="M7.871,22.684c-.337,.08-.609,.328-.719,.657l-2.122,6.363c-.12,.359-.026,.756,.242,1.023,.19,.19,.446,.293,.707,.293,.106,0,.212-.017,.316-.052l6.364-2.121c.329-.109,.577-.381,.657-.719,.08-.337-.021-.691-.266-.937l-4.243-4.242c-.245-.245-.6-.345-.937-.267Zm-.311,5.756l.978-2.932,1.954,1.954-2.932,.978Z"/><path d="M21,28h-6c-.347,0-.668,.18-.851,.475s-.199,.663-.044,.973l3,6c.169,.339,.516,.553,.895,.553s.725-.214,.895-.553l3-6c.155-.31,.138-.678-.044-.973s-.504-.475-.851-.475Zm-3,4.764l-1.382-2.764h2.764l-1.382,2.764Z"/><path d="M23.34,28.848l6.364,2.121c.104,.035,.21,.052,.316,.052,.261,0,.517-.103,.707-.293,.268-.268,.361-.664,.242-1.023l-2.122-6.363c-.11-.329-.382-.577-.719-.657-.339-.078-.692,.021-.937,.267l-4.243,4.242c-.245,.245-.346,.6-.266,.937,.08,.338,.328,.609,.657,.719Zm4.122-3.34l.978,2.932-2.932-.978,1.954-1.954Z"/><path d="M28.474,14.149c-.294,.183-.474,.504-.474,.851v6c0,.347,.18,.668,.474,.851,.161,.1,.343,.149,.526,.149,.153,0,.306-.035,.447-.105l6-3c.339-.17,.553-.516,.553-.895s-.214-.725-.553-.895l-6-3c-.31-.154-.678-.139-.973,.044Zm1.526,2.469l2.764,1.382-2.764,1.382v-2.764Z"/><path d="M27.192,13.05c.189,.189,.445,.293,.707,.293,.077,0,.154-.009,.23-.026,.337-.08,.609-.328,.719-.657l2.122-6.363c.12-.359,.026-.756-.242-1.023-.268-.269-.665-.363-1.023-.241l-6.364,2.121c-.329,.109-.577,.381-.657,.719-.08,.337,.021,.691,.266,.937l4.243,4.242Zm1.248-5.489l-.978,2.932-1.954-1.954,2.932-.978Z"/><path d="M52.574,33.843c-.367-.141-.782-.05-1.06,.229-.278,.277-.367,.691-.229,1.06,.474,1.259,.714,2.561,.714,3.869,0,6.065-4.935,11-11,11-1.309,0-2.611-.24-3.869-.714-.367-.141-.782-.05-1.06,.229-.278,.277-.367,.692-.229,1.06,1.898,5.04,6.784,8.426,12.158,8.426,7.168,0,13-5.832,13-13,0-5.374-3.386-10.26-8.426-12.157Zm-4.574,23.157c-3.827,0-7.361-2.03-9.342-5.217,.774,.145,1.557,.217,2.342,.217,7.168,0,13-5.832,13-13,0-.785-.073-1.568-.217-2.342,3.187,1.98,5.217,5.515,5.217,9.342,0,6.065-4.935,11-11,11Z"/><path d="M40.029,44.244c.111,.444,.509,.754,.967,.756h.004c.456,0,.855-.311,.969-.752,.036-.14,.927-3.441,4.275-4.278,.445-.111,.758-.511,.758-.97s-.313-.859-.758-.97c-3.348-.837-4.239-4.138-4.274-4.274-.111-.444-.509-.754-.967-.756h-.004c-.456,0-.855,.311-.969,.752-.036,.14-.927,3.441-4.275,4.278-.445,.111-.758,.511-.758,.97s.313,.859,.758,.97c3.348,.837,4.239,4.138,4.274,4.274Zm.971-7.82c.535,.868,1.333,1.834,2.492,2.576-1.159,.742-1.957,1.708-2.492,2.576-.535-.868-1.333-1.834-2.492-2.576,1.159-.742,1.957-1.708,2.492-2.576Z"/><path d="M49,31c1.654,0,3-1.346,3-3s-1.346-3-3-3-3,1.346-3,3,1.346,3,3,3Zm0-4c.551,0,1,.448,1,1s-.449,1-1,1-1-.448-1-1,.449-1,1-1Z"/><path d="M28,51c-1.654,0-3,1.346-3,3s1.346,3,3,3,3-1.346,3-3-1.346-3-3-3Zm0,4c-.551,0-1-.448-1-1s.449-1,1-1,1,.448,1,1-.449,1-1,1Z"/></g></svg>