<?xml version="1.0" encoding="UTF-8"?><svg id="_-sun-3" xmlns="http://www.w3.org/2000/svg" viewBox="0 0 64 64"><circle cx="32" cy="32" r="18" fill="#dbb55c"/><g><path d="M32,51c-10.477,0-19-8.523-19-19S21.523,13,32,13s19,8.523,19,19-8.523,19-19,19Zm0-36c-9.374,0-17,7.626-17,17s7.626,17,17,17,17-7.626,17-17-7.626-17-17-17Z"/><g><g><path d="M26.999,12.001c-.467,0-.885-.329-.979-.804L24.02,1.197c-.108-.542,.243-1.068,.784-1.177,.543-.11,1.069,.243,1.177,.784l2,10c.108,.542-.243,1.068-.784,1.177-.066,.013-.132,.02-.197,.02Z"/><path d="M37.001,12.001c-.065,0-.131-.006-.197-.02-.542-.108-.893-.635-.784-1.177L38.02,.804c.108-.542,.632-.895,1.177-.784,.542,.108,.893,.635,.784,1.177l-2,10c-.095,.475-.513,.804-.979,.804Z"/></g><g><path d="M13.614,21.687c-.19,0-.383-.054-.554-.168L4.575,15.861c-.459-.306-.583-.927-.277-1.387,.306-.459,.927-.585,1.387-.277l8.485,5.657c.459,.306,.583,.927,.277,1.387-.193,.289-.51,.445-.833,.445Z"/><path d="M20.688,14.615c-.323,0-.64-.156-.833-.445L14.197,5.685c-.306-.459-.182-1.081,.277-1.387,.458-.308,1.08-.182,1.387,.277l5.657,8.485c.306,.459,.182,1.081-.277,1.387-.17,.114-.363,.168-.554,.168Z"/></g><g><path d="M.999,40c-.467,0-.885-.329-.979-.804-.108-.542,.243-1.068,.784-1.177l10-2c.542-.107,1.069,.243,1.177,.784,.108,.542-.243,1.068-.784,1.177l-10,2c-.066,.013-.132,.02-.197,.02Z"/><path d="M11.001,28c-.065,0-.131-.006-.197-.02L.804,25.98c-.542-.108-.893-.635-.784-1.177,.108-.542,.631-.895,1.177-.784l10,2c.542,.108,.893,.635,.784,1.177-.095,.475-.513,.804-.979,.804Z"/></g><g><path d="M15.028,59.87c-.19,0-.383-.054-.554-.168-.459-.306-.583-.927-.277-1.387l5.657-8.485c.307-.459,.926-.585,1.387-.277,.459,.306,.583,.927,.277,1.387l-5.657,8.485c-.193,.289-.51,.445-.833,.445Z"/><path d="M5.131,49.971c-.323,0-.64-.156-.833-.445-.306-.459-.182-1.081,.277-1.387l8.485-5.657c.459-.307,1.08-.183,1.387,.277,.306,.459,.182,1.081-.277,1.387l-8.485,5.657c-.17,.114-.363,.168-.554,.168Z"/></g><g><path d="M38.999,64c-.467,0-.885-.329-.979-.804l-2-10c-.108-.542,.243-1.068,.784-1.177,.545-.107,1.069,.243,1.177,.784l2,10c.108,.542-.243,1.068-.784,1.177-.066,.013-.132,.02-.197,.02Z"/><path d="M25.001,64c-.065,0-.131-.006-.197-.02-.542-.108-.893-.635-.784-1.177l2-10c.108-.541,.634-.892,1.177-.784,.542,.108,.893,.635,.784,1.177l-2,10c-.095,.475-.513,.804-.979,.804Z"/></g><g><path d="M58.869,49.971c-.19,0-.383-.054-.554-.168l-8.485-5.657c-.459-.306-.583-.927-.277-1.387,.307-.46,.926-.584,1.387-.277l8.485,5.657c.459,.306,.583,.927,.277,1.387-.193,.289-.51,.445-.833,.445Z"/><path d="M48.972,59.87c-.323,0-.64-.156-.833-.445l-5.657-8.485c-.306-.459-.182-1.081,.277-1.387,.459-.308,1.079-.182,1.387,.277l5.657,8.485c.306,.459,.182,1.081-.277,1.387-.17,.114-.363,.168-.554,.168Z"/></g><g><path d="M52.999,28c-.467,0-.885-.329-.979-.804-.108-.542,.243-1.068,.784-1.177l10-2c.545-.11,1.069,.243,1.177,.784,.108,.542-.243,1.068-.784,1.177l-10,2c-.066,.013-.132,.02-.197,.02Z"/><path d="M63.001,40c-.065,0-.131-.006-.197-.02l-10-2c-.542-.108-.893-.635-.784-1.177,.107-.541,.634-.892,1.177-.784l10,2c.542,.108,.893,.635,.784,1.177-.095,.475-.513,.804-.979,.804Z"/></g><g><path d="M43.312,14.615c-.19,0-.383-.054-.554-.168-.459-.306-.583-.927-.277-1.387l5.657-8.485c.306-.459,.926-.585,1.387-.277,.459,.306,.583,.927,.277,1.387l-5.657,8.485c-.193,.289-.51,.445-.833,.445Z"/><path d="M50.386,21.687c-.323,0-.64-.156-.833-.445-.306-.459-.182-1.081,.277-1.387l8.485-5.657c.459-.308,1.08-.182,1.387,.277,.306,.459,.182,1.081-.277,1.387l-8.485,5.657c-.17,.114-.363,.168-.554,.168Z"/></g></g></g></svg>