<?xml version="1.0" encoding="UTF-8"?><svg id="_-sleeping_moon" xmlns="http://www.w3.org/2000/svg" viewBox="0 0 64 64"><g><path d="M48.381,13.62c1.676,3.438,2.619,7.299,2.619,11.38,0,5.485-1.702,10.569-4.602,14.763l-8.398-.763,4.873,4.873c-4.66,4.414-10.948,7.127-17.873,7.127-4.082,0-7.943-.943-11.381-2.619,4.221,8.655,13.103,14.619,23.381,14.619,14.359,0,26-11.641,26-26,0-10.277-5.964-19.16-14.619-23.38Z" fill="#fcea81"/><path d="M42,32h-11c-.809,0-1.538-.487-1.848-1.235-.31-.747-.139-1.607,.434-2.179l6.586-6.586h-6.172v-4h11c.809,0,1.538,.487,1.848,1.235,.31,.747,.139,1.607-.434,2.179l-6.586,6.586h6.172v4Z" fill="#b295f0"/><path d="M24,43H13c-.809,0-1.538-.487-1.848-1.235-.31-.747-.139-1.607,.434-2.179l6.586-6.586h-6.172v-4h11c.809,0,1.538,.487,1.848,1.235,.31,.747,.139,1.607-.434,2.179l-6.586,6.586h6.172v4Z" fill="#b295f0"/><path d="M23,25H4c-1.214,0-2.308-.731-2.771-1.852-.465-1.121-.208-2.411,.65-3.269L14.758,7H3V1H22c1.214,0,2.308,.731,2.771,1.852,.465,1.121,.208,2.411-.65,3.269l-12.879,12.879h11.758v6Z" fill="#b295f0"/></g><g><path d="M48.819,12.721c-.383-.186-.845-.11-1.146,.192-.302,.302-.379,.762-.191,1.145,1.67,3.428,2.518,7.109,2.518,10.942,0,4.906-1.416,9.634-4.1,13.714l-7.81-.71c-.414-.036-.818,.19-.996,.572-.179,.381-.1,.833,.198,1.131l4.132,4.132c-4.559,3.981-10.352,6.161-16.425,6.161-3.835,0-7.517-.847-10.942-2.519-.383-.187-.845-.11-1.146,.192-.302,.302-.379,.762-.191,1.146,4.566,9.364,13.869,15.181,24.279,15.181,14.888,0,27-12.112,27-27,0-10.409-5.817-19.712-15.181-24.279Zm-11.819,49.279c-8.68,0-16.529-4.368-21.093-11.57,2.903,1.043,5.951,1.57,9.093,1.57,3.334,0,6.586-.614,9.628-1.776,1.096,1.485,4.015,4.776,8.372,4.776,.553,0,1-.448,1-1s-.447-1-1-1c-3.109,0-5.397-2.27-6.467-3.59,2.553-1.209,4.927-2.82,7.027-4.81,.196-.186,.309-.442,.312-.712s-.102-.53-.293-.721l-2.92-2.92,5.647,.514c.356,.029,.708-.13,.913-.427,3.127-4.523,4.779-9.825,4.779-15.333,0-3.141-.527-6.188-1.569-9.093,7.201,4.564,11.569,12.414,11.569,21.093,0,13.785-11.215,25-25,25Z"/><path d="M57.895,41.553c-.248-.494-.849-.694-1.342-.447-.016,.008-1.597,.754-3.105,0-1.386-.693-1.445-2.038-1.447-2.115-.005-.548-.451-.99-1-.99-.553,0-1,.448-1,1,0,.107,.029,2.632,2.553,3.895,.823,.412,1.642,.549,2.366,.549,1.406,0,2.462-.516,2.528-.549,.494-.247,.694-.848,.447-1.342Z"/><path d="M31,33h11c.553,0,1-.448,1-1v-4c0-.552-.447-1-1-1h-3.758l4.879-4.878c.861-.861,1.116-2.144,.65-3.27-.466-1.125-1.554-1.852-2.771-1.852h-11c-.553,0-1,.448-1,1v4c0,.552,.447,1,1,1h3.758l-4.879,4.878c-.861,.861-1.116,2.144-.65,3.27,.466,1.125,1.554,1.852,2.771,1.852Zm-.707-3.707l6.586-6.586c.286-.286,.372-.716,.217-1.09-.154-.374-.52-.617-.924-.617h-5.172v-2h10c.406,0,.769,.242,.924,.618,.155,.375,.07,.802-.217,1.089l-6.586,6.586c-.286,.286-.372,.716-.217,1.09,.154,.374,.52,.617,.924,.617h5.172v2h-10c-.406,0-.769-.242-.924-.618-.155-.375-.07-.802,.217-1.089Z"/><path d="M24,44c.553,0,1-.448,1-1v-4c0-.552-.447-1-1-1h-3.758l4.879-4.878c.861-.861,1.116-2.144,.65-3.27-.466-1.125-1.554-1.852-2.771-1.852H12c-.553,0-1,.448-1,1v4c0,.552,.447,1,1,1h3.758l-4.879,4.878c-.861,.861-1.116,2.144-.65,3.27,.466,1.125,1.554,1.852,2.771,1.852h11Zm-11.924-2.618c-.155-.375-.07-.802,.217-1.089l6.586-6.586c.286-.286,.372-.716,.217-1.09-.154-.374-.52-.617-.924-.617h-5.172v-2h10c.406,0,.769,.242,.924,.618,.155,.375,.07,.802-.217,1.089l-6.586,6.586c-.286,.286-.372,.716-.217,1.09,.154,.374,.52,.617,.924,.617h5.172v2H13c-.406,0-.769-.242-.924-.618Z"/><path d="M24,25v-6c0-.552-.448-1-1-1H13.656L24.828,6.829c1.383-1.383,1.595-3.581,.365-5.244-.771-1.042-2.049-1.585-3.345-1.585H3c-.552,0-1,.448-1,1V7c0,.552,.448,1,1,1H12.344L1.172,19.171C.372,19.971,0,21,0,22.127c0,.791,.288,1.587,.807,2.289,.771,1.042,2.049,1.585,3.345,1.585H23c.552,0,1-.448,1-1Zm-2-1H4c-1.019,0-1.9-.762-1.999-1.855-.055-.607,.225-1.2,.656-1.631L15.465,7.707c.286-.286,.372-.716,.217-1.09-.154-.374-.52-.617-.924-.617H4V2H22c1.019,0,1.9,.762,1.999,1.855,.055,.607-.225,1.2-.656,1.631l-12.807,12.807c-.286,.286-.372,.716-.217,1.09,.154,.374,.52,.617,.924,.617h10.758v4Z"/></g></svg>